<!-- Generated by IcoMoon.io -->
<svg version="1.1" xmlns="http://www.w3.org/2000/svg" width="30" height="32" viewBox="0 0 30 32">
<title>pizza-1</title>
<path fill="#173156" d="M0.072 5.966l14.283 25.739c0.099 0.177 0.286 0.295 0.501 0.295s0.401-0.118 0.499-0.292l0.002-0.003 14.288-25.739c0.045-0.080 0.072-0.176 0.072-0.278 0-0.188-0.090-0.354-0.23-0.458l-0.002-0.001c-0.071-0.053-1.793-1.326-4.456-2.614-2.466-1.193-6.233-2.615-10.17-2.615-2.173 0-5.702 0.454-10.171 2.615-2.665 1.287-4.385 2.56-4.456 2.614-0.141 0.105-0.231 0.272-0.231 0.459 0 0.102 0.027 0.198 0.073 0.281l-0.001-0.003zM11.457 24.113c1.459-0.562 2.476-1.953 2.476-3.581 0-2.114-1.714-3.828-3.828-3.828-0.878 0-1.687 0.295-2.332 0.792l0.009-0.007-4.559-8.209c2.641-1.582 7.037-4.202 11.636-4.202s8.995 2.62 11.636 4.202l-11.637 20.966zM9.662 20.878l-1.317-2.374c0.468-0.408 1.084-0.656 1.758-0.656 1.482 0 2.683 1.201 2.683 2.683 0 1.2-0.788 2.216-1.874 2.559l-0.019 0.005zM1.324 5.863c1.569-1.062 7.413-4.718 13.534-4.718s11.964 3.653 13.534 4.718l-1.341 2.417c-2.747-1.647-7.297-4.348-12.193-4.348s-9.446 2.7-12.193 4.346z"></path>
<path fill="#173156" d="M14.288 12.642c0 2.377 1.927 4.304 4.304 4.304s4.304-1.927 4.304-4.304c0-2.377-1.927-4.304-4.304-4.304v0c-2.376 0.003-4.301 1.928-4.304 4.304v0zM15.433 12.642c0-0 0-0 0-0.001 0-1.744 1.414-3.158 3.158-3.158s3.158 1.414 3.158 3.158c0 1.744-1.414 3.158-3.158 3.158v0c-1.743-0.002-3.156-1.414-3.158-3.157v-0z"></path>
<path fill="#173156" d="M10.675 11.968c0-0 0-0 0-0.001 0-1.351-1.096-2.447-2.447-2.447s-2.447 1.096-2.447 2.447c0 1.351 1.096 2.447 2.447 2.447 0 0 0 0 0.001 0h-0c1.35-0.002 2.444-1.096 2.446-2.446v-0zM9.529 11.968c0 0.719-0.583 1.301-1.301 1.301s-1.301-0.583-1.301-1.301c0-0.719 0.583-1.301 1.301-1.301 0 0 0 0 0.001 0h-0c0.718 0.001 1.3 0.583 1.301 1.301v0z"></path>
<path fill="#173156" d="M18.314 20.623c0.234 0.076 0.4 0.292 0.4 0.546 0 0.316-0.256 0.573-0.573 0.573-0.062 0-0.121-0.010-0.177-0.028l0.004 0.001c-0.139-0.045-0.299-0.071-0.465-0.071-0.688 0-1.271 0.448-1.474 1.068l-0.003 0.011c-0.076 0.234-0.292 0.4-0.546 0.4-0.316 0-0.573-0.257-0.573-0.573 0-0.062 0.010-0.121 0.028-0.177l-0.001 0.004c0.357-1.098 1.372-1.878 2.569-1.878 0.29 0 0.569 0.046 0.83 0.13l-0.019-0.005z"></path>
<path fill="#173156" d="M19.387 10.215c0.096 0.031 0.165 0.12 0.165 0.225 0 0.13-0.106 0.236-0.236 0.236-0.025 0-0.050-0.004-0.073-0.011l0.002 0c-0.186-0.061-0.4-0.096-0.623-0.096-0.918 0-1.696 0.598-1.966 1.426l-0.004 0.015c-0.031 0.096-0.12 0.165-0.225 0.165-0.13 0-0.236-0.106-0.236-0.236 0-0.025 0.004-0.050 0.011-0.073l-0 0.002c0.337-1.035 1.293-1.77 2.421-1.77 0.273 0 0.536 0.043 0.782 0.123l-0.018-0.005z"></path>
<path fill="#173156" d="M10.749 18.392c0.85 0.369 1.434 1.201 1.434 2.17 0 0.332-0.069 0.649-0.193 0.936l0.006-0.015c-0.037 0.085-0.12 0.144-0.217 0.144v0c-0.13-0-0.236-0.106-0.236-0.236 0-0.033 0.007-0.065 0.019-0.094l-0.001 0.002c0.095-0.217 0.15-0.47 0.15-0.736 0-0.774-0.466-1.439-1.133-1.73l-0.012-0.005c-0.087-0.036-0.148-0.12-0.148-0.219 0-0.13 0.106-0.236 0.236-0.236 0.035 0 0.068 0.008 0.098 0.021l-0.001-0.001z"></path>
<path fill="#173156" d="M11.929 10.666c-0 0-0 0-0.001 0-0.057 0-0.113-0.009-0.164-0.025l0.004 0.001c-0.24-0.072-0.412-0.29-0.412-0.549 0-0.057 0.008-0.113 0.024-0.165l-0.001 0.004c0.027-0.089 0.042-0.192 0.042-0.298 0-0.486-0.323-0.896-0.765-1.029l-0.008-0.002c-0.24-0.072-0.412-0.291-0.412-0.55 0-0.316 0.256-0.573 0.573-0.573 0.057 0 0.112 0.008 0.164 0.024l-0.004-0.001c0.93 0.279 1.595 1.126 1.595 2.13 0 0.221-0.032 0.435-0.093 0.636l0.004-0.016c-0.071 0.239-0.289 0.411-0.547 0.412h-0z"></path>
</svg>
